<svg width="24" height="24" viewBox="0 0 24 24" fill="none" xmlns="http://www.w3.org/2000/svg">
<path d="M23.2564 15.0694L16.1783 3.72565C15.2721 2.27325 13.71 1.40625 12 1.40625C10.29 1.40625 8.72791 2.27325 7.82172 3.72565L0.743591 15.0694C0.25708 15.8491 0 16.749 0 17.6719C0 20.3859 2.20789 22.5938 4.92188 22.5938H19.0781C21.7921 22.5938 24 20.3859 24 17.6719C24 16.749 23.7429 15.8491 23.2564 15.0694ZM19.0781 21.1875H4.92188C2.98334 21.1875 1.40625 19.6104 1.40625 17.6719C1.40625 17.0125 1.58972 16.37 1.93671 15.8139L9.01483 4.47015C9.66248 3.43213 10.7783 2.8125 12 2.8125C13.2217 2.8125 14.3375 3.43213 14.9852 4.47015L22.0633 15.8139C22.4103 16.37 22.5938 17.0125 22.5938 17.6719C22.5938 19.6104 21.0167 21.1875 19.0781 21.1875Z" fill="#826BD0"/>
<path d="M13.7922 5.21448C13.4031 4.591 12.7332 4.21875 12 4.21875C11.2668 4.21875 10.5969 4.591 10.2078 5.21448L3.12982 16.5582C2.92218 16.8909 2.8125 17.276 2.8125 17.6719C2.8125 18.835 3.75879 19.7812 4.92188 19.7812H19.0781C20.2412 19.7812 21.1875 18.835 21.1875 17.6719C21.1875 17.276 21.0778 16.8909 20.8704 16.5582L13.7922 5.21448ZM12.7031 16.9219H11.2969V15.5156H12.7031V16.9219ZM12.7031 14.1094H11.2969V9.14062H12.7031V14.1094Z" fill="#826BD0"/>
</svg>
